<svg width="18" height="18" viewBox="0 0 18 18" fill="none" xmlns="http://www.w3.org/2000/svg">
<path d="M14.25 16.5H3.75C3.35218 16.5 2.97064 16.342 2.68934 16.0607C2.40804 15.7794 2.25 15.3978 2.25 15V6C2.25 5.60218 2.40804 5.22064 2.68934 4.93934C2.97064 4.65804 3.35218 4.5 3.75 4.5H5.25C5.44891 4.5 5.63968 4.57902 5.78033 4.71967C5.92098 4.86032 6 5.05109 6 5.25C6 5.44891 5.92098 5.63968 5.78033 5.78033C5.63968 5.92098 5.44891 6 5.25 6H3.75V15H14.25V6H12.75C12.5511 6 12.3603 5.92098 12.2197 5.78033C12.079 5.63968 12 5.44891 12 5.25C12 5.05109 12.079 4.86032 12.2197 4.71967C12.3603 4.57902 12.5511 4.5 12.75 4.5H14.25C14.6478 4.5 15.0294 4.65804 15.3107 4.93934C15.592 5.22064 15.75 5.60218 15.75 6V15C15.75 15.3978 15.592 15.7794 15.3107 16.0607C15.0294 16.342 14.6478 16.5 14.25 16.5ZM9 12C8.80109 12 8.61032 11.921 8.46967 11.7803C8.32902 11.6397 8.25 11.4489 8.25 11.25V2.56125L6.4725 4.34625C6.40032 4.41897 6.31546 4.47717 6.22236 4.51769C6.12927 4.55821 6.02957 4.58031 5.92875 4.58278C5.82793 4.58525 5.72734 4.56805 5.63261 4.53205C5.53788 4.49605 5.45066 4.44187 5.37563 4.37263C5.30059 4.30339 5.23911 4.22117 5.19535 4.13043C5.15159 4.03969 5.12633 3.94211 5.12076 3.84239C5.11518 3.74267 5.12937 3.64316 5.16268 3.54935C5.19599 3.45553 5.24782 3.36908 5.31563 3.29437L8.44063 0.169375C8.58156 0.0310977 8.7719 -0.0419922 8.97 -0.0419922C9.1681 -0.0419922 9.35844 0.0310977 9.49938 0.169375L12.6244 3.29437C12.7633 3.43503 12.8407 3.62536 12.8407 3.82369C12.8407 4.02202 12.7633 4.21234 12.6244 4.35301C12.4837 4.49193 12.2934 4.56929 12.0951 4.56929C11.8967 4.56929 11.7064 4.49193 11.5657 4.35301L9.75 2.56125V11.25C9.75 11.4489 9.67098 11.6397 9.53033 11.7803C9.38968 11.921 9.19891 12 9 12Z" fill="white"/>
</svg>